<?xml version="1.0" encoding="utf-8"?>
<!-- Generator: Adobe Illustrator 27.0.1, SVG Export Plug-In . SVG Version: 6.00 Build 0)  -->
<svg version="1.1" id="visual" xmlns="http://www.w3.org/2000/svg" xmlns:xlink="http://www.w3.org/1999/xlink" x="0px" y="0px"
	 viewBox="0 0 960 95.2" style="enable-background:new 0 0 960 95.2;" xml:space="preserve">
<style type="text/css">
	.st0{fill:#1A202C;}
	.st1{fill:#4299E1;}
	.st2{fill:#3C6DA0;}
	.st3{fill:#2E4463;}
</style>
<rect y="-18.8" class="st0" width="960" height="540"/>
<path class="st1" d="M0,86.2l22.8,0.7c22.9,0.6,68.5,2,114.2,2.8s91.3,1.2,137-1s91.3-6.8,137.2-11.7c45.8-4.8,91.8-9.8,137.6-5.8
	c45.9,4,91.5,17,137.2,19.8c45.7,2.9,91.3-4.5,137-5.5s91.3,4.4,114.2,7l22.8,2.7v-114h-22.8c-22.9,0-68.5,0-114.2,0s-91.3,0-137,0
	s-91.3,0-137.2,0c-45.8,0-91.8,0-137.6,0c-45.9,0-91.5,0-137.2,0s-91.3,0-137,0s-91.3,0-114.2,0H0V86.2z"/>
<path class="st2" d="M0,62.2L22.8,66C45.7,69.9,91.3,77.5,137,77.2s91.3-8.7,137-15.7s91.3-12.6,137.2-15.6
	c45.8-3,91.8-3.4,137.6-1.2c45.9,2.2,91.5,6.8,137.2,10.2c45.7,3.3,91.3,5.3,137,7.3c45.7,2,91.3,4,114.2,5l22.8,1v-87h-22.8
	c-22.9,0-68.5,0-114.2,0s-91.3,0-137,0s-91.3,0-137.2,0c-45.8,0-91.8,0-137.6,0c-45.9,0-91.5,0-137.2,0s-91.3,0-137,0
	s-91.3,0-114.2,0H0V62.2z"/>
<path class="st3" d="M0,57.2L22.8,52C45.7,46.9,91.3,36.5,137,31.4c45.7-5.2,91.3-5.2,137-3.4c45.7,1.9,91.3,5.5,137.2,5.4
	c45.8-0.2,91.8-4.2,137.6-2c45.9,2.1,91.5,10.5,137.2,14.3c45.7,3.8,91.3,3.2,137-2.3s91.3-15.9,114.2-21l22.8-5.2v-36h-22.8
	c-22.9,0-68.5,0-114.2,0s-91.3,0-137,0s-91.3,0-137.2,0c-45.8,0-91.8,0-137.6,0c-45.9,0-91.5,0-137.2,0s-91.3,0-137,0
	s-91.3,0-114.2,0H0V57.2z"/>
<path class="st0" d="M0,17.2l22.8,0.5c22.9,0.5,68.5,1.5,114.2,1s91.3-2.5,137-4.2c45.7-1.6,91.3-3,137.2-2.5
	c45.8,0.5,91.8,2.9,137.6,4.2c45.9,1.3,91.5,1.7,137.2,1.8c45.7,0.2,91.3,0.2,137-2.3s91.3-7.5,114.2-10L960,3.2v-22h-22.8
	c-22.9,0-68.5,0-114.2,0s-91.3,0-137,0s-91.3,0-137.2,0c-45.8,0-91.8,0-137.6,0c-45.9,0-91.5,0-137.2,0s-91.3,0-137,0
	s-91.3,0-114.2,0H0V17.2z"/>
</svg>
