<svg id="visual" viewBox="0 0 900 100" width="900" height="100" xmlns="http://www.w3.org/2000/svg" xmlns:xlink="http://www.w3.org/1999/xlink" version="1.1"><path d="M0 18L13.7 19.2C27.3 20.3 54.7 22.7 82 22.8C109.3 23 136.7 21 163.8 22.2C191 23.3 218 27.7 245.2 30.2C272.3 32.7 299.7 33.3 327 30.7C354.3 28 381.7 22 409 21.2C436.3 20.3 463.7 24.7 491 24.5C518.3 24.3 545.7 19.7 573 19.2C600.3 18.7 627.7 22.3 654.8 24.2C682 26 709 26 736.2 25C763.3 24 790.7 22 818 23.7C845.3 25.3 872.7 30.7 886.3 33.3L900 36L900 0L886.3 0C872.7 0 845.3 0 818 0C790.7 0 763.3 0 736.2 0C709 0 682 0 654.8 0C627.7 0 600.3 0 573 0C545.7 0 518.3 0 491 0C463.7 0 436.3 0 409 0C381.7 0 354.3 0 327 0C299.7 0 272.3 0 245.2 0C218 0 191 0 163.8 0C136.7 0 109.3 0 82 0C54.7 0 27.3 0 13.7 0L0 0Z" fill="#1a202c"></path><path d="M0 50L13.7 51.8C27.3 53.7 54.7 57.3 82 62.5C109.3 67.7 136.7 74.3 163.8 75.7C191 77 218 73 245.2 69.3C272.3 65.7 299.7 62.3 327 58.3C354.3 54.3 381.7 49.7 409 49.7C436.3 49.7 463.7 54.3 491 60C518.3 65.7 545.7 72.3 573 72.3C600.3 72.3 627.7 65.7 654.8 66.3C682 67 709 75 736.2 75.7C763.3 76.3 790.7 69.7 818 69C845.3 68.3 872.7 73.7 886.3 76.3L900 79L900 34L886.3 31.3C872.7 28.7 845.3 23.3 818 21.7C790.7 20 763.3 22 736.2 23C709 24 682 24 654.8 22.2C627.7 20.3 600.3 16.7 573 17.2C545.7 17.7 518.3 22.3 491 22.5C463.7 22.7 436.3 18.3 409 19.2C381.7 20 354.3 26 327 28.7C299.7 31.3 272.3 30.7 245.2 28.2C218 25.7 191 21.3 163.8 20.2C136.7 19 109.3 21 82 20.8C54.7 20.7 27.3 18.3 13.7 17.2L0 16Z" fill="#232834"></path><path d="M0 101L13.7 101C27.3 101 54.7 101 82 101C109.3 101 136.7 101 163.8 101C191 101 218 101 245.2 101C272.3 101 299.7 101 327 101C354.3 101 381.7 101 409 101C436.3 101 463.7 101 491 101C518.3 101 545.7 101 573 101C600.3 101 627.7 101 654.8 101C682 101 709 101 736.2 101C763.3 101 790.7 101 818 101C845.3 101 872.7 101 886.3 101L900 101L900 77L886.3 74.3C872.7 71.7 845.3 66.3 818 67C790.7 67.7 763.3 74.3 736.2 73.7C709 73 682 65 654.8 64.3C627.7 63.7 600.3 70.3 573 70.3C545.7 70.3 518.3 63.7 491 58C463.7 52.3 436.3 47.7 409 47.7C381.7 47.7 354.3 52.3 327 56.3C299.7 60.3 272.3 63.7 245.2 67.3C218 71 191 75 163.8 73.7C136.7 72.3 109.3 65.7 82 60.5C54.7 55.3 27.3 51.7 13.7 49.8L0 48Z" fill="#2c313d"></path></svg>