<?xml version="1.0" encoding="utf-8"?>
<!-- Generator: Adobe Illustrator 27.0.1, SVG Export Plug-In . SVG Version: 6.00 Build 0)  -->
<svg version="1.1" id="visual" xmlns="http://www.w3.org/2000/svg" xmlns:xlink="http://www.w3.org/1999/xlink" x="0px" y="0px"
	 viewBox="0 0 960 41.5" style="enable-background:new 0 0 960 41.5;" xml:space="preserve">
<style type="text/css">
	.st0{fill:#2C313D;}
</style>
<path class="st0" d="M0,32.5l22.8-1c22.9-1,68.5-3,114.2-7s91.3-10,137-11s91.3,3,137.2,4.7c45.8,1.6,91.8,1,137.6-4.2
	C594.7,8.8,640.3-0.8,686,0s91.3,12.2,137,19.3c45.7,7.2,91.3,10.2,114.2,11.7l22.8,1.5v60h-22.8c-22.9,0-68.5,0-114.2,0
	s-91.3,0-137,0s-91.3,0-137.2,0c-45.8,0-91.8,0-137.6,0c-45.9,0-91.5,0-137.2,0s-91.3,0-137,0s-91.3,0-114.2,0H0V32.5z"/>
</svg>
